<svg width="12" height="12" viewBox="0 0 12 12" fill="none" xmlns="http://www.w3.org/2000/svg">
<path d="M3.87505 1.25C3.87505 1.15054 3.83554 1.05516 3.76522 0.984835C3.69489 0.914509 3.59951 0.875 3.50005 0.875C3.40059 0.875 3.30521 0.914509 3.23489 0.984835C3.16456 1.05516 3.12505 1.15054 3.12505 1.25V2.04C2.40505 2.0975 1.93305 2.2385 1.58605 2.586C1.23855 2.933 1.09755 3.4055 1.03955 4.125H10.9606C10.9026 3.405 10.7615 2.933 10.4141 2.586C10.067 2.2385 9.59455 2.0975 8.87505 2.0395V1.25C8.87505 1.15054 8.83554 1.05516 8.76522 0.984835C8.69489 0.914509 8.59951 0.875 8.50005 0.875C8.40059 0.875 8.30521 0.914509 8.23489 0.984835C8.16456 1.05516 8.12505 1.15054 8.12505 1.25V2.0065C7.79255 2 7.41955 2 7.00005 2H5.00005C4.58055 2 4.20755 2 3.87505 2.0065V1.25Z" fill="#007CFF"/>
<path fill-rule="evenodd" clip-rule="evenodd" d="M1 6C1 5.5805 1 5.2075 1.0065 4.875H10.9935C11 5.2075 11 5.5805 11 6V7C11 8.8855 11 9.8285 10.414 10.414C9.8285 11 8.8855 11 7 11H5C3.1145 11 2.1715 11 1.586 10.414C1 9.8285 1 8.8855 1 7V6ZM8.5 7C8.63261 7 8.75979 6.94732 8.85355 6.85355C8.94732 6.75979 9 6.63261 9 6.5C9 6.36739 8.94732 6.24021 8.85355 6.14645C8.75979 6.05268 8.63261 6 8.5 6C8.36739 6 8.24021 6.05268 8.14645 6.14645C8.05268 6.24021 8 6.36739 8 6.5C8 6.63261 8.05268 6.75979 8.14645 6.85355C8.24021 6.94732 8.36739 7 8.5 7ZM8.5 9C8.63261 9 8.75979 8.94732 8.85355 8.85355C8.94732 8.75979 9 8.63261 9 8.5C9 8.36739 8.94732 8.24021 8.85355 8.14645C8.75979 8.05268 8.63261 8 8.5 8C8.36739 8 8.24021 8.05268 8.14645 8.14645C8.05268 8.24021 8 8.36739 8 8.5C8 8.63261 8.05268 8.75979 8.14645 8.85355C8.24021 8.94732 8.36739 9 8.5 9ZM6.5 6.5C6.5 6.63261 6.44732 6.75979 6.35355 6.85355C6.25979 6.94732 6.13261 7 6 7C5.86739 7 5.74021 6.94732 5.64645 6.85355C5.55268 6.75979 5.5 6.63261 5.5 6.5C5.5 6.36739 5.55268 6.24021 5.64645 6.14645C5.74021 6.05268 5.86739 6 6 6C6.13261 6 6.25979 6.05268 6.35355 6.14645C6.44732 6.24021 6.5 6.36739 6.5 6.5ZM6.5 8.5C6.5 8.63261 6.44732 8.75979 6.35355 8.85355C6.25979 8.94732 6.13261 9 6 9C5.86739 9 5.74021 8.94732 5.64645 8.85355C5.55268 8.75979 5.5 8.63261 5.5 8.5C5.5 8.36739 5.55268 8.24021 5.64645 8.14645C5.74021 8.05268 5.86739 8 6 8C6.13261 8 6.25979 8.05268 6.35355 8.14645C6.44732 8.24021 6.5 8.36739 6.5 8.5ZM3.5 7C3.63261 7 3.75979 6.94732 3.85355 6.85355C3.94732 6.75979 4 6.63261 4 6.5C4 6.36739 3.94732 6.24021 3.85355 6.14645C3.75979 6.05268 3.63261 6 3.5 6C3.36739 6 3.24021 6.05268 3.14645 6.14645C3.05268 6.24021 3 6.36739 3 6.5C3 6.63261 3.05268 6.75979 3.14645 6.85355C3.24021 6.94732 3.36739 7 3.5 7ZM3.5 9C3.63261 9 3.75979 8.94732 3.85355 8.85355C3.94732 8.75979 4 8.63261 4 8.5C4 8.36739 3.94732 8.24021 3.85355 8.14645C3.75979 8.05268 3.63261 8 3.5 8C3.36739 8 3.24021 8.05268 3.14645 8.14645C3.05268 8.24021 3 8.36739 3 8.5C3 8.63261 3.05268 8.75979 3.14645 8.85355C3.24021 8.94732 3.36739 9 3.5 9Z" fill="#007CFF"/>
</svg>
