<svg width="64" height="64" viewBox="0 0 64 64" fill="none" xmlns="http://www.w3.org/2000/svg">
<path d="M32 4C39.4261 4 46.548 6.94999 51.799 12.201C57.05 17.452 60 24.5739 60 32C60 39.4261 57.05 46.548 51.799 51.799C46.548 57.05 39.4261 60 32 60C24.5739 60 17.452 57.05 12.201 51.799C6.94999 46.548 4 39.4261 4 32C4 24.5739 6.94999 17.452 12.201 12.201C17.452 6.94999 24.5739 4 32 4ZM28.512 37.524L22.292 31.3C22.069 31.077 21.8043 30.9001 21.513 30.7795C21.2216 30.6588 20.9093 30.5967 20.594 30.5967C20.2787 30.5967 19.9664 30.6588 19.675 30.7795C19.3837 30.9001 19.119 31.077 18.896 31.3C18.4457 31.7503 18.1927 32.3611 18.1927 32.998C18.1927 33.6349 18.4457 34.2457 18.896 34.696L26.816 42.616C27.0383 42.8401 27.3029 43.018 27.5943 43.1394C27.8857 43.2608 28.1983 43.3233 28.514 43.3233C28.8297 43.3233 29.1423 43.2608 29.4337 43.1394C29.7251 43.018 29.9897 42.8401 30.212 42.616L46.612 26.212C46.838 25.9899 47.0177 25.7253 47.1409 25.4335C47.2641 25.1416 47.3283 24.8282 47.3298 24.5114C47.3312 24.1946 47.27 23.8806 47.1495 23.5876C47.029 23.2946 46.8517 23.0283 46.6278 22.8042C46.404 22.58 46.1379 22.4024 45.845 22.2816C45.5522 22.1608 45.2383 22.0991 44.9215 22.1002C44.6046 22.1013 44.2912 22.1652 43.9992 22.288C43.7071 22.4108 43.4423 22.5903 43.22 22.816L28.512 37.524Z" fill="#58CC02"/>
</svg>
